<mxfile host="app.diagrams.net" modified="2022-06-26T08:34:54.668Z" agent="5.0 (Windows NT 10.0; Win64; x64) AppleWebKit/537.36 (KHTML, like Gecko) Chrome/103.0.5060.53 Safari/537.36 Edg/103.0.1264.37" etag="_Pua5U-3jPJPymH_RXLB" version="20.0.3" type="github">
  <diagram id="j1P6GTm4k-swYUYjeGMA" name="第 1 页">
    <mxGraphModel dx="2370" dy="1310" grid="1" gridSize="10" guides="1" tooltips="1" connect="1" arrows="1" fold="1" page="1" pageScale="1" pageWidth="827" pageHeight="1169" math="0" shadow="0">
      <root>
        <mxCell id="0" />
        <mxCell id="1" parent="0" />
        <mxCell id="4ywA6eQ1ByJGkuEdg-qf-3" value="" style="edgeStyle=orthogonalEdgeStyle;rounded=0;orthogonalLoop=1;jettySize=auto;html=1;" parent="1" source="4ywA6eQ1ByJGkuEdg-qf-1" target="4ywA6eQ1ByJGkuEdg-qf-2" edge="1">
          <mxGeometry relative="1" as="geometry">
            <Array as="points">
              <mxPoint x="210" y="350" />
              <mxPoint x="210" y="300" />
            </Array>
          </mxGeometry>
        </mxCell>
        <mxCell id="4ywA6eQ1ByJGkuEdg-qf-6" value="" style="edgeStyle=orthogonalEdgeStyle;rounded=0;orthogonalLoop=1;jettySize=auto;html=1;" parent="1" source="4ywA6eQ1ByJGkuEdg-qf-1" target="4ywA6eQ1ByJGkuEdg-qf-5" edge="1">
          <mxGeometry relative="1" as="geometry">
            <Array as="points">
              <mxPoint x="210" y="350" />
              <mxPoint x="210" y="390" />
            </Array>
          </mxGeometry>
        </mxCell>
        <mxCell id="4ywA6eQ1ByJGkuEdg-qf-12" value="" style="edgeStyle=orthogonalEdgeStyle;rounded=0;orthogonalLoop=1;jettySize=auto;html=1;" parent="1" source="4ywA6eQ1ByJGkuEdg-qf-1" target="4ywA6eQ1ByJGkuEdg-qf-11" edge="1">
          <mxGeometry relative="1" as="geometry">
            <Array as="points">
              <mxPoint x="210" y="350" />
              <mxPoint x="210" y="660" />
            </Array>
          </mxGeometry>
        </mxCell>
        <mxCell id="4ywA6eQ1ByJGkuEdg-qf-14" value="" style="edgeStyle=orthogonalEdgeStyle;rounded=0;orthogonalLoop=1;jettySize=auto;html=1;" parent="1" source="4ywA6eQ1ByJGkuEdg-qf-1" target="4ywA6eQ1ByJGkuEdg-qf-13" edge="1">
          <mxGeometry relative="1" as="geometry">
            <Array as="points">
              <mxPoint x="210" y="350" />
              <mxPoint x="210" y="970" />
            </Array>
          </mxGeometry>
        </mxCell>
        <mxCell id="4ywA6eQ1ByJGkuEdg-qf-1" value="知教后台管理系统" style="rounded=0;whiteSpace=wrap;html=1;" parent="1" vertex="1">
          <mxGeometry x="10" y="320" width="120" height="60" as="geometry" />
        </mxCell>
        <mxCell id="4ywA6eQ1ByJGkuEdg-qf-16" value="" style="edgeStyle=orthogonalEdgeStyle;rounded=0;orthogonalLoop=1;jettySize=auto;html=1;" parent="1" source="4ywA6eQ1ByJGkuEdg-qf-2" target="4ywA6eQ1ByJGkuEdg-qf-15" edge="1">
          <mxGeometry relative="1" as="geometry">
            <Array as="points">
              <mxPoint x="470" y="300" />
              <mxPoint x="470" y="170" />
            </Array>
          </mxGeometry>
        </mxCell>
        <mxCell id="4ywA6eQ1ByJGkuEdg-qf-18" value="" style="edgeStyle=orthogonalEdgeStyle;rounded=0;orthogonalLoop=1;jettySize=auto;html=1;" parent="1" source="4ywA6eQ1ByJGkuEdg-qf-2" target="4ywA6eQ1ByJGkuEdg-qf-17" edge="1">
          <mxGeometry relative="1" as="geometry" />
        </mxCell>
        <mxCell id="4ywA6eQ1ByJGkuEdg-qf-2" value="用户注册登录" style="whiteSpace=wrap;html=1;rounded=0;" parent="1" vertex="1">
          <mxGeometry x="280" y="270" width="120" height="60" as="geometry" />
        </mxCell>
        <mxCell id="4ywA6eQ1ByJGkuEdg-qf-20" value="" style="edgeStyle=orthogonalEdgeStyle;rounded=0;orthogonalLoop=1;jettySize=auto;html=1;" parent="1" source="4ywA6eQ1ByJGkuEdg-qf-5" target="4ywA6eQ1ByJGkuEdg-qf-19" edge="1">
          <mxGeometry relative="1" as="geometry" />
        </mxCell>
        <mxCell id="4ywA6eQ1ByJGkuEdg-qf-26" value="" style="edgeStyle=orthogonalEdgeStyle;rounded=0;orthogonalLoop=1;jettySize=auto;html=1;" parent="1" source="4ywA6eQ1ByJGkuEdg-qf-5" target="4ywA6eQ1ByJGkuEdg-qf-25" edge="1">
          <mxGeometry relative="1" as="geometry" />
        </mxCell>
        <mxCell id="4ywA6eQ1ByJGkuEdg-qf-31" style="edgeStyle=orthogonalEdgeStyle;rounded=0;orthogonalLoop=1;jettySize=auto;html=1;entryX=0;entryY=0.5;entryDx=0;entryDy=0;" parent="1" source="4ywA6eQ1ByJGkuEdg-qf-5" target="4ywA6eQ1ByJGkuEdg-qf-27" edge="1">
          <mxGeometry relative="1" as="geometry" />
        </mxCell>
        <mxCell id="4ywA6eQ1ByJGkuEdg-qf-5" value="账号权限管理" style="whiteSpace=wrap;html=1;rounded=0;" parent="1" vertex="1">
          <mxGeometry x="280" y="360" width="120" height="60" as="geometry" />
        </mxCell>
        <mxCell id="4ywA6eQ1ByJGkuEdg-qf-33" value="" style="edgeStyle=orthogonalEdgeStyle;rounded=0;orthogonalLoop=1;jettySize=auto;html=1;" parent="1" source="4ywA6eQ1ByJGkuEdg-qf-11" target="4ywA6eQ1ByJGkuEdg-qf-32" edge="1">
          <mxGeometry relative="1" as="geometry" />
        </mxCell>
        <mxCell id="4ywA6eQ1ByJGkuEdg-qf-35" value="" style="edgeStyle=orthogonalEdgeStyle;rounded=0;orthogonalLoop=1;jettySize=auto;html=1;" parent="1" source="4ywA6eQ1ByJGkuEdg-qf-11" target="4ywA6eQ1ByJGkuEdg-qf-34" edge="1">
          <mxGeometry relative="1" as="geometry" />
        </mxCell>
        <mxCell id="4ywA6eQ1ByJGkuEdg-qf-37" value="" style="edgeStyle=orthogonalEdgeStyle;rounded=0;orthogonalLoop=1;jettySize=auto;html=1;" parent="1" source="4ywA6eQ1ByJGkuEdg-qf-11" target="4ywA6eQ1ByJGkuEdg-qf-36" edge="1">
          <mxGeometry relative="1" as="geometry">
            <Array as="points">
              <mxPoint x="440" y="660" />
              <mxPoint x="440" y="790" />
            </Array>
          </mxGeometry>
        </mxCell>
        <mxCell id="4ywA6eQ1ByJGkuEdg-qf-43" style="edgeStyle=orthogonalEdgeStyle;rounded=0;orthogonalLoop=1;jettySize=auto;html=1;entryX=-0.008;entryY=0.46;entryDx=0;entryDy=0;entryPerimeter=0;" parent="1" source="4ywA6eQ1ByJGkuEdg-qf-11" target="4ywA6eQ1ByJGkuEdg-qf-42" edge="1">
          <mxGeometry relative="1" as="geometry" />
        </mxCell>
        <mxCell id="4ywA6eQ1ByJGkuEdg-qf-11" value="知教快讯" style="rounded=0;whiteSpace=wrap;html=1;" parent="1" vertex="1">
          <mxGeometry x="280" y="630" width="120" height="60" as="geometry" />
        </mxCell>
        <mxCell id="4ywA6eQ1ByJGkuEdg-qf-13" value="知教活动管理" style="rounded=0;whiteSpace=wrap;html=1;" parent="1" vertex="1">
          <mxGeometry x="270" y="940" width="120" height="60" as="geometry" />
        </mxCell>
        <mxCell id="4ywA6eQ1ByJGkuEdg-qf-15" value="用户登录" style="whiteSpace=wrap;html=1;rounded=0;" parent="1" vertex="1">
          <mxGeometry x="490" y="140" width="120" height="60" as="geometry" />
        </mxCell>
        <mxCell id="4ywA6eQ1ByJGkuEdg-qf-17" value="用户注册" style="whiteSpace=wrap;html=1;rounded=0;" parent="1" vertex="1">
          <mxGeometry x="490" y="270" width="120" height="60" as="geometry" />
        </mxCell>
        <mxCell id="4ywA6eQ1ByJGkuEdg-qf-19" value="后台管理账号查看" style="whiteSpace=wrap;html=1;rounded=0;" parent="1" vertex="1">
          <mxGeometry x="490" y="340" width="120" height="60" as="geometry" />
        </mxCell>
        <mxCell id="4ywA6eQ1ByJGkuEdg-qf-25" value="后台管理账号权限修改" style="whiteSpace=wrap;html=1;rounded=0;" parent="1" vertex="1">
          <mxGeometry x="490" y="420" width="120" height="60" as="geometry" />
        </mxCell>
        <mxCell id="4ywA6eQ1ByJGkuEdg-qf-27" value="账号删除" style="whiteSpace=wrap;html=1;rounded=0;" parent="1" vertex="1">
          <mxGeometry x="490" y="490" width="120" height="60" as="geometry" />
        </mxCell>
        <mxCell id="4ywA6eQ1ByJGkuEdg-qf-32" value="添加快讯" style="whiteSpace=wrap;html=1;rounded=0;" parent="1" vertex="1">
          <mxGeometry x="480" y="600" width="120" height="60" as="geometry" />
        </mxCell>
        <mxCell id="4ywA6eQ1ByJGkuEdg-qf-34" value="发布快讯" style="whiteSpace=wrap;html=1;rounded=0;" parent="1" vertex="1">
          <mxGeometry x="480" y="670" width="120" height="60" as="geometry" />
        </mxCell>
        <mxCell id="4ywA6eQ1ByJGkuEdg-qf-36" value="修改快讯信息" style="whiteSpace=wrap;html=1;rounded=0;" parent="1" vertex="1">
          <mxGeometry x="480" y="750" width="120" height="60" as="geometry" />
        </mxCell>
        <mxCell id="4ywA6eQ1ByJGkuEdg-qf-42" value="快讯信息查看&amp;amp;导出" style="rounded=0;whiteSpace=wrap;html=1;" parent="1" vertex="1">
          <mxGeometry x="480" y="830" width="120" height="60" as="geometry" />
        </mxCell>
        <mxCell id="4ywA6eQ1ByJGkuEdg-qf-51" value="" style="edgeStyle=orthogonalEdgeStyle;rounded=0;orthogonalLoop=1;jettySize=auto;html=1;" parent="1" source="4ywA6eQ1ByJGkuEdg-qf-44" target="4ywA6eQ1ByJGkuEdg-qf-50" edge="1">
          <mxGeometry relative="1" as="geometry" />
        </mxCell>
        <mxCell id="4ywA6eQ1ByJGkuEdg-qf-53" value="" style="edgeStyle=orthogonalEdgeStyle;rounded=0;orthogonalLoop=1;jettySize=auto;html=1;" parent="1" source="4ywA6eQ1ByJGkuEdg-qf-44" target="4ywA6eQ1ByJGkuEdg-qf-52" edge="1">
          <mxGeometry relative="1" as="geometry" />
        </mxCell>
        <mxCell id="4ywA6eQ1ByJGkuEdg-qf-44" value="支教活动新闻管理" style="rounded=0;whiteSpace=wrap;html=1;" parent="1" vertex="1">
          <mxGeometry x="480" y="920" width="120" height="60" as="geometry" />
        </mxCell>
        <mxCell id="4ywA6eQ1ByJGkuEdg-qf-45" value="人员审核管理" style="rounded=0;whiteSpace=wrap;html=1;" parent="1" vertex="1">
          <mxGeometry x="480" y="1180" width="120" height="60" as="geometry" />
        </mxCell>
        <mxCell id="4ywA6eQ1ByJGkuEdg-qf-46" value="报名讯息查看" style="rounded=0;whiteSpace=wrap;html=1;" parent="1" vertex="1">
          <mxGeometry x="480" y="1390" width="120" height="60" as="geometry" />
        </mxCell>
        <mxCell id="4ywA6eQ1ByJGkuEdg-qf-47" value="课程管理" style="rounded=0;whiteSpace=wrap;html=1;" parent="1" vertex="1">
          <mxGeometry x="480" y="1480" width="120" height="60" as="geometry" />
        </mxCell>
        <mxCell id="4ywA6eQ1ByJGkuEdg-qf-48" value="通讯录管理" style="rounded=0;whiteSpace=wrap;html=1;" parent="1" vertex="1">
          <mxGeometry x="480" y="1754" width="120" height="60" as="geometry" />
        </mxCell>
        <mxCell id="4ywA6eQ1ByJGkuEdg-qf-50" value="添加新闻" style="rounded=0;whiteSpace=wrap;html=1;" parent="1" vertex="1">
          <mxGeometry x="670" y="870" width="120" height="60" as="geometry" />
        </mxCell>
        <mxCell id="4ywA6eQ1ByJGkuEdg-qf-52" value="新闻信息查看&amp;amp;导出" style="rounded=0;whiteSpace=wrap;html=1;" parent="1" vertex="1">
          <mxGeometry x="670" y="940" width="120" height="60" as="geometry" />
        </mxCell>
        <mxCell id="4ywA6eQ1ByJGkuEdg-qf-55" value="新闻讯息修改" style="rounded=0;whiteSpace=wrap;html=1;" parent="1" vertex="1">
          <mxGeometry x="670" y="1010" width="120" height="60" as="geometry" />
        </mxCell>
        <mxCell id="4ywA6eQ1ByJGkuEdg-qf-57" value="信息删除" style="rounded=0;whiteSpace=wrap;html=1;" parent="1" vertex="1">
          <mxGeometry x="670" y="1080" width="120" height="60" as="geometry" />
        </mxCell>
        <mxCell id="0iSuVb1UGKF_RNqRMPnt-1" value="人员信息查看&amp;amp;导出" style="rounded=0;whiteSpace=wrap;html=1;" vertex="1" parent="1">
          <mxGeometry x="670" y="1160" width="120" height="60" as="geometry" />
        </mxCell>
        <mxCell id="0iSuVb1UGKF_RNqRMPnt-2" value="人员信息修改" style="rounded=0;whiteSpace=wrap;html=1;" vertex="1" parent="1">
          <mxGeometry x="670" y="1230" width="120" height="60" as="geometry" />
        </mxCell>
        <mxCell id="0iSuVb1UGKF_RNqRMPnt-3" value="人员信息删除" style="rounded=0;whiteSpace=wrap;html=1;" vertex="1" parent="1">
          <mxGeometry x="670" y="1300" width="120" height="60" as="geometry" />
        </mxCell>
        <mxCell id="0iSuVb1UGKF_RNqRMPnt-4" value="报名信息导出&amp;amp;查看" style="rounded=0;whiteSpace=wrap;html=1;" vertex="1" parent="1">
          <mxGeometry x="670" y="1390" width="120" height="60" as="geometry" />
        </mxCell>
        <mxCell id="0iSuVb1UGKF_RNqRMPnt-5" value="课程信息修改" style="rounded=0;whiteSpace=wrap;html=1;" vertex="1" parent="1">
          <mxGeometry x="670" y="1560" width="120" height="60" as="geometry" />
        </mxCell>
        <mxCell id="0iSuVb1UGKF_RNqRMPnt-6" value="课程信息查看&amp;amp;导出" style="rounded=0;whiteSpace=wrap;html=1;" vertex="1" parent="1">
          <mxGeometry x="670" y="1480" width="120" height="60" as="geometry" />
        </mxCell>
        <mxCell id="0iSuVb1UGKF_RNqRMPnt-7" value="课程信息删除" style="rounded=0;whiteSpace=wrap;html=1;" vertex="1" parent="1">
          <mxGeometry x="670" y="1640" width="120" height="60" as="geometry" />
        </mxCell>
        <mxCell id="0iSuVb1UGKF_RNqRMPnt-8" value="电话信息修改" style="rounded=0;whiteSpace=wrap;html=1;" vertex="1" parent="1">
          <mxGeometry x="660" y="1820" width="120" height="60" as="geometry" />
        </mxCell>
        <mxCell id="0iSuVb1UGKF_RNqRMPnt-9" value="电话信息查看&amp;amp;导出" style="rounded=0;whiteSpace=wrap;html=1;" vertex="1" parent="1">
          <mxGeometry x="660" y="1740" width="120" height="60" as="geometry" />
        </mxCell>
        <mxCell id="0iSuVb1UGKF_RNqRMPnt-10" value="电话信息删除" style="rounded=0;whiteSpace=wrap;html=1;" vertex="1" parent="1">
          <mxGeometry x="660" y="1900" width="120" height="60" as="geometry" />
        </mxCell>
        <mxCell id="0iSuVb1UGKF_RNqRMPnt-11" value="添加电话" style="rounded=0;whiteSpace=wrap;html=1;" vertex="1" parent="1">
          <mxGeometry x="660" y="1980" width="120" height="60" as="geometry" />
        </mxCell>
      </root>
    </mxGraphModel>
  </diagram>
</mxfile>
